<svg xmlns="http://www.w3.org/2000/svg" viewBox="0 0 381 208.13"><defs><style>.cls-1{fill:#fffee4;}.cls-2,.cls-3{fill:#282828;}.cls-3{font-size:74.26px;font-family:HelveticaNeue-Bold, Helvetica Neue;font-weight:700;}.cls-4{letter-spacing:-0.02em;}</style></defs><g id="Layer_2" data-name="Layer 2"><g id="Layer_1-2" data-name="Layer 1"><polygon class="cls-1" points="262.81 55.31 262.81 110.61 315.38 110.61 315.38 110.23 262.81 55.31"/><polygon class="cls-1" points="262.81 55.31 262.81 0 315.38 0 315.38 0.39 262.81 55.31"/><polygon class="cls-1" points="262.81 0 262.81 55.31 210.24 55.31 210.24 54.92 262.81 0"/><polygon class="cls-1" points="210.58 55.31 210.58 110.61 263.15 110.61 263.15 110.23 210.58 55.31"/><polygon class="cls-1" points="210.58 55.31 210.58 110.61 158.01 110.61 158.01 110.23 210.58 55.31"/><polygon class="cls-1" points="262.81 110.61 262.81 55.31 210.24 55.31 210.24 55.69 262.81 110.61"/><polygon class="cls-1" points="262.81 164.89 262.81 109.59 210.24 109.59 210.24 109.97 262.81 164.89"/><rect class="cls-2" x="86.93" y="39.63" width="85.89" height="32.71"/><path class="cls-2" d="M52.57,109.59,0,109.2,105.24,0h52.37Z"/><path class="cls-2" d="M157.77,109.59l-52.57-.39L210.43,0h52.38Z"/><polygon class="cls-1" points="158.01 164.89 158.01 109.59 210.58 109.59 210.58 109.97 158.01 164.89"/><polygon class="cls-1" points="158.01 164.38 158.01 109.07 105.44 109.07 105.44 109.46 158.01 164.38"/><text class="cls-3" transform="translate(207.76 110.26)">OME</text><text class="cls-3" transform="translate(0 172.41)">COMFO<tspan class="cls-4" x="281.96" y="0">R</tspan><tspan x="334.23" y="0">T</tspan></text></g></g></svg>